/* XPM */
static char *a4a85e109ded4986afa1c6460fe339a8mWipsmjyfPUdBWgi[] = {
/* columns rows colors chars-per-pixel */
"64 64 2 1 ",
"  c #ED1C24",
". c #A8E61D",
/* pixels */
"................................................................",
"................................................................",
"................................................................",
"................................................................",
"................................................................",
"................................................................",
"................................................................",
"................................................................",
"................................................................",
"................................................................",
"................................................................",
"................................................................",
"................................................................",
"................................................................",
"................................................................",
".......................................   ......................",
".......................................   ......................",
".......................................     ....................",
".......................................      ...................",
".......................................       ..................",
".......................................        .................",
"........................................        ................",
"........................................         ...............",
"........................................           .............",
"........................................            ............",
"........................................             ...........",
"........................................              ..........",
"....                                                    ........",
".                                                        .......",
".                                                         ......",
".                                                          .....",
".                                                          .....",
".                                                          .....",
".                                                         ......",
".                                                        .......",
"..                                                      ........",
".....                                                  .........",
".........................................             ..........",
".........................................            ...........",
".........................................           ............",
".........................................           ............",
".........................................          .............",
".........................................         ..............",
"..........................................       ...............",
"..........................................      ................",
"..........................................     .................",
"...........................................   ..................",
"...........................................  ...................",
"................................................................",
"................................................................",
"................................................................",
"................................................................",
"................................................................",
"................................................................",
"................................................................",
"................................................................",
"................................................................",
"................................................................",
"................................................................",
"................................................................",
"................................................................",
"................................................................",
"................................................................",
"................................................................"
};
